<?xml version="1.0" encoding="utf-8"?>
<!-- Generator: Adobe Illustrator 26.0.3, SVG Export Plug-In . SVG Version: 6.00 Build 0)  -->
<svg version="1.1" id="Layer_1" xmlns="http://www.w3.org/2000/svg" xmlns:xlink="http://www.w3.org/1999/xlink" x="0px" y="0px"
	 viewBox="0 0 1080 1080" style="enable-background:new 0 0 1080 1080;" xml:space="preserve">
<style type="text/css">
	.st0{fill:#FFFF00;}
	.st1{fill:#C1272D;}
</style>
<g>
	<path class="st0" d="M704.9,523.4c0,26.3-8.5,41.3-25.4,44.9c-2.9,0.5-29.8,3.4-80.9,8.6c-30.7,3.4-76.6,7.4-137.5,12.1
		c3.6,16.9,14.7,29.8,33.2,38.7c15.1,7.3,32.3,10.9,51.6,10.9c23.2,0,46.5-6.2,69.9-18.8c9.9-6.2,19.8-12.5,29.7-18.8
		c5.5,2.6,14.6,15.9,27.5,39.8c12.9,24,19.3,39.2,19.3,45.7c0,1.8-2,4.8-5.9,9c-31.8,34.1-81.1,51.2-148,51.2
		c-62,0-112-18.1-150-54.3c-39.1-36.7-58.6-85.8-58.6-147.3c0-59.9,17.4-109,52.3-147.3c35.9-39.6,83.6-59.4,143-59.4
		c50,0,92.4,18.2,127.3,54.7C687.5,429.7,704.9,473.1,704.9,523.4z M568.2,499.5c0-16.1-5.7-30.3-17.2-42.6
		c-11.5-12.2-25.1-18.4-41-18.4c-16.4,0-30,6.9-40.6,20.7c-9.9,12.8-14.8,27.7-14.8,44.9c0,7,3.6,10.5,10.9,10.5
		c19.3,0,49.2-3,89.8-9C563.9,504.5,568.2,502.4,568.2,499.5z"/>
</g>
<g>
	<path class="st1" d="M730.4,518.1c0,26.3-8.5,41.3-25.4,44.9c-2.9,0.5-29.8,3.4-80.9,8.6c-30.7,3.4-76.6,7.4-137.5,12.1
		c3.6,16.9,14.7,29.8,33.2,38.7c15.1,7.3,32.3,10.9,51.6,10.9c23.2,0,46.5-6.2,69.9-18.8c9.9-6.2,19.8-12.5,29.7-18.8
		c5.5,2.6,14.6,15.9,27.5,39.8c12.9,24,19.3,39.2,19.3,45.7c0,1.8-2,4.8-5.9,9c-31.8,34.1-81.1,51.2-148,51.2
		c-62,0-112-18.1-150-54.3c-39.1-36.7-58.6-85.8-58.6-147.3c0-59.9,17.4-109,52.3-147.3c35.9-39.6,83.6-59.4,143-59.4
		c50,0,92.4,18.2,127.3,54.7C712.9,424.5,730.4,467.9,730.4,518.1z M593.7,494.3c0-16.1-5.7-30.3-17.2-42.6
		c-11.5-12.2-25.1-18.4-41-18.4c-16.4,0-30,6.9-40.6,20.7c-9.9,12.8-14.8,27.7-14.8,44.9c0,7,3.6,10.5,10.9,10.5
		c19.3,0,49.2-3,89.8-9C589.4,499.3,593.7,497.2,593.7,494.3z"/>
</g>
</svg>
