<?xml version="1.0" encoding="utf-8"?>
<!-- Generator: Adobe Illustrator 26.0.3, SVG Export Plug-In . SVG Version: 6.00 Build 0)  -->
<svg version="1.1" id="Layer_1" xmlns="http://www.w3.org/2000/svg" xmlns:xlink="http://www.w3.org/1999/xlink" x="0px" y="0px"
	 viewBox="0 0 1080 1080" style="enable-background:new 0 0 1080 1080;" xml:space="preserve">
<style type="text/css">
	.st0{fill:#FFFFFF;}
</style>
<g>
	<path class="st0" d="M89.5,461.6h45.2c9.1,0,15.8-0.2,20-0.6c4.2-0.4,8.3-1.2,12.3-2.3c1.2-0.4,2.2-0.5,2.9-0.5
		c3,0,5.7,1.6,8.1,4.9c3.9,5.3,5.8,11.8,5.8,19.3c0,3.8-0.8,6.8-2.4,9c-1.6,2.2-3.8,3.3-6.6,3.3c-1.9,0-3.4-0.4-4.5-1.2
		c-1.1-0.8-2.5-2.6-4.4-5.3c-2.6-3.9-5.8-6.5-9.8-7.9s-10.4-2-19.5-2c-6.7,0-10.8,1.2-12.3,3.6c-0.8,1.3-1.2,3-1.4,5.2
		c-0.1,2.2-0.2,7.7-0.2,16.6c0,3.5,0.6,5.7,1.8,6.5c1.2,0.9,4.2,1.3,9.2,1.3c2.5,0,4.2-0.5,5.4-1.5c1.1-1,1.8-2.9,2.1-5.5
		c0.4-3.4,0.8-5.7,1.3-7c0.4-1.3,1.2-2.4,2.4-3.3c1.2-1.1,2.7-1.6,4.3-1.6c2.4,0,4.5,1.1,6.2,3.4c1.2,1.7,2.3,4.7,3.1,9
		c0.8,4.3,1.3,8.8,1.3,13.5c0,9.3-1.4,16.8-4.3,22.8c-1.6,3.2-4,4.8-7.2,4.8c-2,0-3.4-0.5-4.1-1.5c-0.8-1-1.3-3.1-1.8-6.4
		c-0.9-6.6-4.7-9.9-11.6-9.9c-2.6,0-4.4,0.8-5.4,2.5s-1.5,4.8-1.5,9.3c0,2.8,0.2,6.3,0.6,10.7c0.4,4.4,0.8,7.2,1.2,8.7
		c0.5,1.8,1.9,3,4.4,3.6c2.4,0.7,6.5,1,12.2,1c8.8,0,15.4-1.1,19.9-3.4c4.5-2.3,8.1-6.3,10.9-12.3c1.6-3.4,3.1-5.7,4.4-6.9
		c1.3-1.2,3-1.8,5.1-1.8c2.5,0,4.5,1.1,6.1,3.2c1.6,2.1,2.4,4.8,2.4,8c0,3.5-0.9,7.9-2.7,13.2c-1.8,5.3-4,10-6.7,14.1
		c-1.3,2-2.5,3.3-3.3,4c-0.9,0.7-2,1-3.3,1c-1.1,0-2.7-0.2-4.8-0.5c-3.8-0.7-8.8-1.1-15-1.3H80.5c-3,0-5.3-0.7-6.9-2
		c-1.6-1.3-2.5-3.2-2.5-5.6c0-1.7,0.4-2.9,1.1-3.7c0.7-0.8,2.3-1.7,4.8-2.9c1.8-0.8,3.1-1.7,3.9-2.8c0.8-1.1,1.5-2.8,2-4.9
		c1.9-8.8,2.9-20.8,2.9-35.8c0-22.6-1.4-36.9-4.2-42.8c-0.6-1.2-1.2-2-1.9-2.5c-0.7-0.5-2.2-1-4.4-1.7c-3.3-1-5-3.2-5-6.7
		c0-1.9,0.6-3.5,1.7-5c1.1-1.5,2.6-2.4,4.4-2.9C78.5,461.9,83,461.6,89.5,461.6z"/>
	<path class="st0" d="M316.7,488.8l-40.3,81.6c-2.5,5-4.8,8.5-7,10.4c-2.2,1.9-5,2.9-8.4,2.9c-2.8,0-5.3-0.6-7.6-1.8
		c-1.7-0.9-3-2-4-3.3s-2.2-3.5-3.6-6.8l-35.9-79.2c-2-4.5-3.8-7.5-5.4-9.1c-1.6-1.6-3.9-2.7-6.9-3.2c-3.5-0.6-5.3-2.8-5.3-6.5
		c0-4.5,3.1-8,9.2-10.4c6.2-2.4,15-3.6,26.5-3.6c12,0,20.7,0.9,26.4,2.7c5.6,1.8,8.4,4.6,8.4,8.4c0,2.5-1.5,4.7-4.6,6.9
		c-2.3,1.6-3.5,3.1-3.5,4.5c0,1.3,0.5,3.1,1.6,5.5l11,24.8c1.6,3.6,3.4,5.4,5.4,5.4c1.9,0,3.7-1,5.2-2.9c1.5-1.9,3.6-5.7,6.2-11.4
		c4.6-10.2,7.3-16.2,8.1-18.1c0.8-1.8,1.1-3.3,1.1-4.3c0-2-1.4-3.7-4.1-5.1c-3-1.6-4.6-3.6-4.6-6.1c0-7,9.3-10.5,28-10.5
		c9.3,0,15.9,0.7,19.7,2.2c3.8,1.5,5.8,4.1,5.8,7.7c0,4.3-2.5,6.8-7.6,7.5c-3.6,0.4-5.9,1-6.9,1.8
		C321.5,480.2,319.3,483.6,316.7,488.8z"/>
	<path class="st0" d="M434.4,520.8l16.6,35.6c1.6,3.3,2.9,5.4,4,6.5s2.7,1.7,4.8,2.1c4.2,0.6,6.3,2.8,6.3,6.4c0,4.3-2.6,7.4-7.7,9.2
		c-5.2,1.9-13.6,2.8-25.3,2.8c-13.2,0-23.1-0.6-29.4-1.7c-2.9-0.5-5.3-1.6-7-3.2c-1.7-1.6-2.6-3.6-2.6-5.8c0-1.8,0.5-3.1,1.4-4.1
		c0.9-1,2.6-1.9,5.1-2.7c2.8-0.9,4.1-2.5,4.1-4.7c0-3.9-2.4-6.2-7.1-6.9c-5.1-0.7-12.3-1.1-21.5-1.1c-7.8,0-12.5,0.5-14,1.4
		c-0.9,0.6-1.8,1.6-2.5,3.2c-0.7,1.5-1.1,3-1.1,4.4c0,1.3,0.2,2.1,0.7,2.5c0.5,0.4,2.1,1,4.9,1.9c3.6,1.1,5.4,3.2,5.4,6.3
		c0,7-8.3,10.5-25,10.5c-9.5,0-16.5-0.6-20.9-1.9c-4.1-1.2-6.2-3.9-6.2-8.1c0-1.8,0.5-3.2,1.4-4.2c0.9-1,2.5-1.9,4.9-2.7
		c3.8-1.3,6.7-3.2,8.7-5.7c2-2.4,4.8-7.6,8.4-15.6l12.4-27.2c4.6-10,7.6-17.4,9.2-22.4c1.6-5,2.4-9.8,2.4-14.5
		c0.1-5,0.4-8.5,0.9-10.5c0.6-2,1.8-3.9,3.7-5.8c4-4.1,9.2-6.2,15.5-6.2c5.9,0,11.6,2.3,17,6.9C409.2,471.9,420.1,490.3,434.4,520.8
		z M373.2,531.9h17.2c3.2,0,4.7-0.7,4.7-2.1c0-1.9-2.2-6.7-6.6-14.2c-2-3.5-3.5-5.8-4.6-6.9c-1.1-1.2-2.2-1.8-3.3-1.8
		c-2.1,0-3.9,2-5.3,5.9c-0.2,0.5-1.1,2.6-2.5,6.2c-2.5,6-3.7,9.6-3.7,10.7C369.2,531.2,370.5,531.9,373.2,531.9z"/>
	<path class="st0" d="M518,465.8l43.8,38.3c4.1,3.6,7.1,5.4,8.9,5.4c3,0,4.6-3.3,4.6-9.8c0-7.4-0.4-12.4-1.3-15.1
		c-0.9-2.7-2.7-4.7-5.5-6.1c-2.3-1.1-3.9-2.3-4.8-3.6c-0.9-1.3-1.4-2.9-1.4-4.9c0-4.9,3.4-8.1,10.1-9.5c2.8-0.6,7.6-0.9,14.4-0.9
		c8.8,0,15,0.5,18.4,1.6c5.4,1.6,8.1,4.7,8.1,9.3c0,3.8-2.2,6.7-6.6,8.6c-1.8,0.8-3,1.4-3.6,2c-0.6,0.6-1.2,1.5-1.7,2.6
		c-1.6,3.9-2.4,11.2-2.5,22v28.7c0,4.4,0,10.4,0.1,18c0.1,10.3-0.6,17.8-1.8,22.3c-1.6,5.7-4.5,8.5-8.6,8.5c-1.8,0-3.4-0.4-4.7-1.1
		c-1.3-0.8-3.5-2.5-6.5-5.3L525,530.3c-3.6-3.3-6.7-4.9-9.1-4.9c-3.6,0-5.4,5-5.4,14.9c0,8.1,0.5,13.7,1.4,16.7
		c0.9,3,2.8,5.2,5.6,6.6c3.9,1.9,5.9,4.5,5.9,7.6c0,8.1-8.8,12.2-26.3,12.2c-7.9,0-14-1-18.4-3.1c-4.4-2.1-6.5-5-6.5-8.8
		c0-2,0.4-3.5,1.2-4.5c0.8-1,2.7-2.3,5.5-4c2.8-1.6,4.4-4.5,5-8.7c1-7.6,1.5-18.4,1.5-32.6c0-15.1-0.9-26.1-2.6-33
		c-0.6-2.5-1.5-4.4-2.5-5.6c-1-1.2-2.6-2.4-4.9-3.5c-2.6-1.3-4.5-2.5-5.5-3.8c-1-1.2-1.5-2.7-1.5-4.5c0-5.6,4.8-9.2,14.5-10.6
		c3.3-0.5,9-0.7,17.2-0.7c4.7,0,8.1,0.4,10.2,1.1C512.5,461.6,515.1,463.2,518,465.8z"/>
	<path class="st0" d="M655.9,581.6h-6.3c-3.7,0-7.8,0.2-12.4,0.5c-2.9,0.2-4.9,0.4-6,0.4c-3.9,0-7.1-0.9-9.6-2.7
		c-2.5-1.8-3.7-4.2-3.7-7.1c0-2,0.5-3.6,1.6-4.8c1.1-1.1,2.9-2.1,5.3-2.8c2.3-0.6,3.9-1.5,4.7-2.9c0.8-1.3,1.5-3.9,1.9-7.7
		c0.5-4.4,0.9-12.9,1.3-25.7c0.4-12.7,0.6-25.3,0.6-37.9c0-4.9-0.4-8.2-1.1-9.8c-0.8-1.6-2.5-3-5.4-4c-4-1.5-6.1-4.1-6.1-7.8
		c0-2.9,1.4-5.1,4.2-6.7c2.8-1.6,6.7-2.4,11.6-2.4c1.6,0,3.6,0,5.8,0.1c4.9,0.2,8.5,0.3,10.7,0.3c8.4,0,17.8-0.3,28.4-0.8
		c2.2-0.1,5-0.2,8.3-0.2c13.4,0,24,1.5,31.8,4.6c11.6,4.6,20.3,12.2,26.2,23c5.2,9.5,7.8,20.8,7.8,33.9c0,6.6-1,13.3-2.9,19.9
		c-1.9,6.7-4.5,12.4-7.8,17.3c-6.8,9.8-16.2,16.8-28.1,20.7c-7,2.3-14.5,3.5-22.5,3.5l-10.6-0.4l-9.1-0.3
		C667.5,581.7,661.3,581.6,655.9,581.6z M674.4,486.3v68c0,3.7,0.8,6.3,2.4,7.9s4.2,2.3,7.9,2.3c17.1,0,25.7-13,25.7-39
		c0-14.4-2-25.5-6-33.4c-4.4-8.7-11.8-13.1-22.3-13.1c-2.8,0-4.8,0.6-5.9,1.7C674.9,481.8,674.4,483.6,674.4,486.3z"/>
	<path class="st0" d="M821,531.1c-2.2,0-3.6,0.7-4.3,2c-0.6,1.3-0.9,4.5-0.9,9.4c0,7.4,0.5,13.2,1.4,17.4c0.3,1.2,0.7,2.1,1.3,2.7
		c0.6,0.6,1.7,1.4,3.3,2.4c3.5,1.9,5.3,4.5,5.3,7.6c0,3.9-2.4,6.6-7.3,8.2c-4.9,1.6-13.2,2.4-24.8,2.4c-21.7,0-32.5-4.1-32.5-12.3
		c0-1.4,0.3-2.5,1-3.4c0.6-0.8,2.1-2,4.4-3.6c2.6-1.7,4.3-3.7,5.2-6c0.9-2.3,1.5-6.3,1.9-12c0.3-4.2,0.4-19.1,0.4-44.7
		c0-8.1-0.4-13.7-1.2-16.6c-0.8-2.9-2.6-5.1-5.3-6.4c-2.6-1.2-4.3-2.4-5.2-3.4c-0.9-1-1.3-2.4-1.3-4c0-2.2,0.8-4.1,2.5-5.7
		c1.7-1.6,4-2.8,7-3.6c2.5-0.6,6-1,10.4-1c1.9,0,6.8,0.3,14.5,0.9c1.5,0.1,3.8,0.2,6.9,0.2c5.3,0,12.3-0.4,21.1-1.1
		c5.6-0.4,9.5-0.6,11.7-0.6c12.5,0,22.9,3,31.1,9.1c7.4,5.4,11.1,13,11.1,22.7c0,5.4-1.3,10.3-3.9,14.7c-2.6,4.4-6.1,7.7-10.6,10
		c-1.9,0.9-2.8,2.1-2.8,3.3c0,1.7,1.4,3.1,4.3,4.1c6.2,2.2,10.7,5.6,13.5,10.1c2.9,4.5,4.9,11.4,6.2,20.7c0.5,3.9,1.3,6.4,2.3,7.5
		c1,1.1,3.3,2.2,6.9,3.3c1.1,0.4,2.1,1.1,2.8,2.2c0.8,1.1,1.1,2.4,1.1,3.8c0,1.8-0.7,3.6-2.1,5.5s-3.2,3.3-5.4,4.3
		c-4.9,2.3-11.7,3.4-20.2,3.4c-11.4,0-19.6-3-24.5-9.1c-2.2-2.7-4.1-6.1-5.7-10.2c-1.6-4.1-3.4-10.5-5.5-19.2
		c-1.3-5.6-3.1-9.5-5.1-11.8C827.8,532.5,824.8,531.3,821,531.1z M815.9,486.3l-1,20.5c0,0.2,0,0.4,0,0.8c0,2.1,0.3,3.5,0.9,4.2
		s1.9,1.1,3.7,1.1c5.2,0,8.9-1.3,11.2-4c2.3-2.7,3.5-6.9,3.5-12.8c0-11.3-4-17-12-17c-2.3,0-3.9,0.5-4.8,1.6
		C816.5,481.7,816,483.6,815.9,486.3z"/>
	<path class="st0" d="M1016.8,520.8l16.6,35.6c1.6,3.3,2.9,5.4,4,6.5s2.7,1.7,4.8,2.1c4.2,0.6,6.3,2.8,6.3,6.4
		c0,4.3-2.6,7.4-7.7,9.2c-5.2,1.9-13.6,2.8-25.3,2.8c-13.2,0-23.1-0.6-29.4-1.7c-2.9-0.5-5.3-1.6-7-3.2c-1.7-1.6-2.6-3.6-2.6-5.8
		c0-1.8,0.5-3.1,1.4-4.1c0.9-1,2.6-1.9,5.1-2.7c2.8-0.9,4.1-2.5,4.1-4.7c0-3.9-2.4-6.2-7.1-6.9c-5.1-0.7-12.3-1.1-21.5-1.1
		c-7.8,0-12.5,0.5-14,1.4c-0.9,0.6-1.8,1.6-2.5,3.2c-0.7,1.5-1.1,3-1.1,4.4c0,1.3,0.2,2.1,0.7,2.5c0.5,0.4,2.1,1,4.9,1.9
		c3.6,1.1,5.4,3.2,5.4,6.3c0,7-8.3,10.5-25,10.5c-9.5,0-16.5-0.6-20.9-1.9c-4.1-1.2-6.2-3.9-6.2-8.1c0-1.8,0.5-3.2,1.4-4.2
		c0.9-1,2.5-1.9,4.9-2.7c3.8-1.3,6.7-3.2,8.7-5.7c2-2.4,4.8-7.6,8.4-15.6l12.4-27.2c4.6-10,7.6-17.4,9.2-22.4
		c1.6-5,2.4-9.8,2.4-14.5c0.1-5,0.4-8.5,0.9-10.5c0.6-2,1.8-3.9,3.7-5.8c4-4.1,9.2-6.2,15.5-6.2c5.9,0,11.6,2.3,17,6.9
		C991.6,471.9,1002.5,490.3,1016.8,520.8z M955.6,531.9h17.2c3.2,0,4.7-0.7,4.7-2.1c0-1.9-2.2-6.7-6.6-14.2c-2-3.5-3.5-5.8-4.6-6.9
		c-1.1-1.2-2.2-1.8-3.3-1.8c-2.1,0-3.9,2-5.3,5.9c-0.2,0.5-1.1,2.6-2.5,6.2c-2.5,6-3.7,9.6-3.7,10.7
		C951.6,531.2,952.9,531.9,955.6,531.9z"/>
</g>
</svg>
